<svg width="16" height="16" viewBox="0 0 16 16" fill="none" xmlns="http://www.w3.org/2000/svg">
<g clip-path="url(#clip0_3_27)">
<path d="M13.281 6.42713L13.899 5.80913C14.3906 5.31751 14.6668 4.65072 14.6668 3.95546C14.6668 3.26021 14.3906 2.59342 13.899 2.1018C13.4074 1.61018 12.7406 1.33398 12.0453 1.33398C11.3501 1.33398 10.6833 1.61018 10.1917 2.1018L9.57367 2.7198L3.89234 8.3998C3.50767 8.78513 3.315 8.9778 3.14967 9.1898C2.95441 9.43998 2.78698 9.71069 2.65034 9.99713C2.535 10.2398 2.449 10.4985 2.277 11.0145L1.54767 13.2018M13.281 6.42713C13.281 6.42713 11.9683 6.3498 10.8097 5.19113C9.65101 4.03313 9.57434 2.7198 9.57434 2.7198M13.281 6.42713L7.60034 12.1071C7.21567 12.4918 7.023 12.6845 6.811 12.8498C6.56083 13.0451 6.29012 13.2125 6.00367 13.3491C5.76101 13.4645 5.50301 13.5505 4.98634 13.7225L2.799 14.4518M2.799 14.4518L2.26434 14.6305C2.13971 14.6723 2.00589 14.6785 1.87793 14.6484C1.74997 14.6183 1.63294 14.5531 1.53999 14.4602C1.44704 14.3672 1.38185 14.2502 1.35177 14.1222C1.32168 13.9942 1.32788 13.8604 1.36967 13.7358L1.54834 13.2011L2.799 14.4518Z" stroke="#B8B8B8" stroke-width="1.5"/>
</g>
<defs>
<clipPath id="clip0_3_27">
<rect width="16" height="16" fill="white"/>
</clipPath>
</defs>
</svg>
