<svg width="24" height="24" viewBox="0 0 24 24" fill="none" xmlns="http://www.w3.org/2000/svg">
<path d="M17.25 6.6H15.5C15.5 4.611 13.9338 3 12 3C10.0662 3 8.5 4.611 8.5 6.6H6.75C5.7875 6.6 5 7.41 5 8.4V19.2C5 20.19 5.7875 21 6.75 21H17.25C18.2125 21 19 20.19 19 19.2V8.4C19 7.41 18.2125 6.6 17.25 6.6ZM10.25 10.2C10.25 10.695 9.85625 11.1 9.375 11.1C8.89375 11.1 8.5 10.695 8.5 10.2V8.4H10.25V10.2ZM12 4.8C12.9625 4.8 13.75 5.61 13.75 6.6H10.25C10.25 5.61 11.0375 4.8 12 4.8ZM15.5 10.2C15.5 10.695 15.1062 11.1 14.625 11.1C14.1438 11.1 13.75 10.695 13.75 10.2V8.4H15.5V10.2Z" fill="black"/>
</svg>
